<?xml version="1.0" standalone="no"?><!DOCTYPE svg PUBLIC "-//W3C//DTD SVG 1.1//EN" "http://www.w3.org/Graphics/SVG/1.1/DTD/svg11.dtd"><svg t="1589946909491" class="icon" viewBox="0 0 1024 1024" version="1.1" xmlns="http://www.w3.org/2000/svg" p-id="13048" xmlns:xlink="http://www.w3.org/1999/xlink" width="200" height="200"><defs><style type="text/css"></style></defs><path d="M897.92 368L592 528.32a85.12 85.12 0 0 0-45.568 76.48v310.016c0 33.28 33.792 55.232 62.08 39.872l305.984-160.256c27.584-14.72 45.504-43.904 45.504-76.544V408.576c0-33.92-33.792-55.232-62.08-40.576zM432 527.68L126.08 368c-28.288-14.656-62.08 6.656-62.08 39.936v311.296c0 32.64 17.28 61.888 45.44 76.48l306.048 159.68c28.288 14.656 62.08-7.296 62.08-40.576V604.16c0-32.64-17.28-61.888-45.504-76.48z m437.76-232.192c14.4-7.296 21.312-19.968 19.968-31.936 1.344-12.608-5.568-24.576-20.032-31.936L558.208 74.624A100.8 100.8 0 0 0 511.296 64c-16.512 0-33.088 3.328-46.848 10.624L152.896 231.04c-14.464 7.296-20.672 19.968-19.968 31.936a33.856 33.856 0 0 0 19.968 32.64L464.448 451.84c13.76 7.296 30.336 10.624 46.848 10.624 16.576 0 33.088-3.328 46.912-10.624l311.488-156.352z" p-id="13049"></path></svg>